<?xml version="1.0" encoding="UTF-8" standalone="no"?>
<svg
   width="50pt"
   height="50pt"
   version="1.1"
   viewBox="0 0 50 50"
   id="svg352"
   sodipodi:docname="dark-theme.svg"
   inkscape:version="1.2.2 (b0a84865, 2022-12-01)"
   xmlns:inkscape="http://www.inkscape.org/namespaces/inkscape"
   xmlns:sodipodi="http://sodipodi.sourceforge.net/DTD/sodipodi-0.dtd"
   xmlns="http://www.w3.org/2000/svg"
   xmlns:svg="http://www.w3.org/2000/svg">
  <sodipodi:namedview
     id="namedview354"
     pagecolor="#ffffff"
     bordercolor="#000000"
     borderopacity="0.25"
     inkscape:showpageshadow="2"
     inkscape:pageopacity="0.0"
     inkscape:pagecheckerboard="0"
     inkscape:deskcolor="#d1d1d1"
     inkscape:document-units="pt"
     showgrid="false"
     inkscape:zoom="2.4258198"
     inkscape:cx="-39.368134"
     inkscape:cy="63.277577"
     inkscape:window-width="1920"
     inkscape:window-height="1027"
     inkscape:window-x="1512"
     inkscape:window-y="25"
     inkscape:window-maximized="0"
     inkscape:current-layer="svg352" />
  <defs
     id="defs262">
    <symbol
       id="t"
       overflow="visible">
      <path
         d="M 1.9531,-0.10938 C 1.85935,-0.054692 1.75388,-0.019536 1.6406,0 1.53513,0.03125 1.42185,0.046875 1.29685,0.046875 c -0.35547,0 -0.63672,-0.097656 -0.84375,-0.29688 -0.21094,-0.19531 -0.3125,-0.46875 -0.3125,-0.8125 0,-0.34375 0.10156,-0.61328 0.3125,-0.8125 0.20703,-0.19531 0.48828,-0.29688 0.84375,-0.29688 0.125,0 0.23828,0.015625 0.34375,0.046875 0.11328,0.023438 0.21875,0.058594 0.3125,0.10938 v 0.45312 C 1.85935,-1.632822 1.75779,-1.68751 1.65622,-1.71876 1.56247,-1.75001 1.457,-1.765635 1.34372,-1.765635 c -0.19922,0 -0.35547,0.0625 -0.46875,0.1875 -0.10547,0.125 -0.15625,0.29688 -0.15625,0.51562 0,0.21874 0.050781,0.39062 0.15625,0.51562 0.11328,0.125 0.26953,0.1875 0.46875,0.1875 0.11328,0 0.21875,-0.015625 0.3125,-0.046875 0.10156,-0.03125 0.20312,-0.082031 0.29688,-0.15625 z"
         id="path202" />
    </symbol>
    <symbol
       id="a"
       overflow="visible">
      <path
         d="M 1.4375,-1.1562 C 1.382812,-1.175731 1.33594,-1.191356 1.29688,-1.203075 1.253911,-1.210888 1.210943,-1.2187 1.17188,-1.2187 c -0.13672,0 -0.24219,0.042969 -0.3125,0.125 C 0.785161,-1.007762 0.75,-0.89058 0.75,-0.73432 V 6e-5 h -0.5 v -1.5938 h 0.5 v 0.26562 c 0.070312,-0.11328 0.14844,-0.19141 0.23438,-0.23438 0.082031,-0.050781 0.17969,-0.078125 0.29688,-0.078125 0.019531,0 0.039062,0.00781 0.0625,0.015625 h 0.09375 z"
         id="path205" />
    </symbol>
    <symbol
       id="d"
       overflow="visible">
      <path
         d="m 1.8438,-0.79688 v 0.14062 H 0.6407 c 0.019531,0.11719 0.066406,0.20312 0.14062,0.26562 0.070312,0.0625 0.17578,0.09375 0.3125,0.09375 0.10156,0 0.21094,-0.015625 0.32812,-0.046875 0.11328,-0.03125 0.22656,-0.078125 0.34375,-0.14062 v 0.39062 c -0.125,0.042969 -0.25,0.074219 -0.375,0.09375 C 1.2735,0.031235 1.16022,0.04686 1.04694,0.04686 c -0.29297,0 -0.52344,-0.070312 -0.6875,-0.21875 -0.15625,-0.15625 -0.23438,-0.36328 -0.23438,-0.625 0,-0.25781 0.078125,-0.46094 0.23438,-0.60938 0.15625,-0.15625 0.375,-0.23438 0.65625,-0.23438 0.25,0 0.44531,0.078125 0.59375,0.23438 0.15625,0.14844 0.23438,0.35156 0.23438,0.60938 z M 1.31255,-0.96876 c 0,-0.10156 -0.03125,-0.17969 -0.09375,-0.23438 -0.054688,-0.0625 -0.12109,-0.09375 -0.20312,-0.09375 -0.10547,0 -0.1875,0.03125 -0.25,0.09375 -0.0625,0.054687 -0.10156,0.13281 -0.10938,0.23438 z"
         id="path208" />
    </symbol>
    <symbol
       id="e"
       overflow="visible">
      <path
         d="m 0.96875,-0.71875 c -0.11719,0 -0.19922,0.023438 -0.25,0.0625 C 0.664062,-0.625 0.640625,-0.570312 0.640625,-0.5 c 0,0.0625 0.019531,0.11719 0.0625,0.15625 0.039063,0.03125 0.10156,0.046875 0.1875,0.046875 0.09375,0 0.17188,-0.03125 0.23438,-0.09375 0.070312,-0.070313 0.10938,-0.16016 0.10938,-0.26562 v -0.0625 z m 0.76562,-0.1875 V 0 h -0.5 V -0.23438 C 1.160151,-0.14063 1.08203,-0.06641 0.99999,-0.01563 0.914052,0.023432 0.81249,0.04687 0.68749,0.04687 0.51952,0.04687 0.3828,-5e-6 0.28124,-0.09375 0.17577,-0.19531 0.12499,-0.32813 0.12499,-0.48437 c 0,-0.1875 0.0625,-0.32031 0.1875,-0.40625 0.13281,-0.082031 0.33594,-0.125 0.60938,-0.125 h 0.3125 v -0.046875 c 0,-0.082031 -0.039063,-0.14062 -0.10938,-0.17188 -0.0625,-0.039063 -0.16406,-0.0625 -0.29688,-0.0625 -0.10547,0 -0.20312,0.011719 -0.29688,0.03125 -0.09375,0.023437 -0.18359,0.054687 -0.26562,0.09375 v -0.39062 c 0.10156,-0.019531 0.21094,-0.035156 0.32812,-0.046875 0.11328,-0.019531 0.22266,-0.03125 0.32812,-0.03125 0.28906,0 0.5,0.058594 0.625,0.17188 0.125,0.11719 0.1875,0.30469 0.1875,0.5625 z"
         id="path211" />
    </symbol>
    <symbol
       id="c"
       overflow="visible">
      <path
         d="m 0.79688,-2.0469 v 0.45312 H 1.32813 V -1.2344 H 0.79688 v 0.67188 c 0,0.085938 0.015625,0.14062 0.046875,0.17188 0.03125,0.023437 0.085938,0.03125 0.17188,0.03125 h 0.26562 V -1e-5 h -0.4375 c -0.19922,0 -0.33984,-0.039062 -0.42188,-0.125 -0.085937,-0.082031 -0.125,-0.22656 -0.125,-0.4375 v -0.67188 h -0.26562 v -0.35938 h 0.26562 v -0.45312 z"
         id="path214" />
    </symbol>
    <symbol
       id="m"
       overflow="visible">
      <path
         d="M 1.3281,-1.3594 V -2.21878 H 1.84372 V 2e-5 H 1.3281 v -0.23438 c -0.0625,0.09375 -0.14062,0.16797 -0.23438,0.21875 -0.085938,0.039062 -0.17969,0.0625 -0.28125,0.0625 -0.19922,0 -0.36719,-0.078125 -0.5,-0.23438 -0.125,-0.15625 -0.1875,-0.35938 -0.1875,-0.60938 0,-0.25 0.0625,-0.45312 0.1875,-0.60938 0.13281,-0.15625 0.30078,-0.23438 0.5,-0.23438 0.10156,0 0.19531,0.027344 0.28125,0.078125 0.09375,0.042969 0.17188,0.10938 0.23438,0.20312 z m -0.32812,1.0312 c 0.10156,0 0.17969,-0.035156 0.23438,-0.10938 0.0625,-0.082031 0.09375,-0.20312 0.09375,-0.35938 0,-0.15626 -0.03125,-0.26953 -0.09375,-0.34375 -0.054687,-0.082031 -0.13281,-0.125 -0.23438,-0.125 -0.11719,0 -0.20312,0.042969 -0.26562,0.125 -0.054687,0.074219 -0.078125,0.1875 -0.078125,0.34375 0,0.15625 0.023438,0.27734 0.078125,0.35938 0.0625,0.074219 0.14844,0.10938 0.26562,0.10938 z"
         id="path217" />
    </symbol>
    <symbol
       id="l"
       overflow="visible">
      <path
         d="m 1.0938,-0.32812 c 0.11328,0 0.19531,-0.035156 0.25,-0.10938 0.0625,-0.082031 0.09375,-0.20312 0.09375,-0.35938 0,-0.15626 -0.03125,-0.26953 -0.09375,-0.34375 -0.054688,-0.082031 -0.13672,-0.125 -0.25,-0.125 -0.10547,0 -0.1875,0.042969 -0.25,0.125 -0.0625,0.074219 -0.09375,0.1875 -0.09375,0.34375 0,0.14844 0.03125,0.26172 0.09375,0.34375 0.0625,0.085937 0.14453,0.125 0.25,0.125 z m -0.34375,-1.0312 c 0.070312,-0.09375 0.14844,-0.16016 0.23438,-0.20312 0.09375,-0.050781 0.19141,-0.078125 0.29688,-0.078125 0.19531,0 0.35938,0.078125 0.48438,0.23438 0.125,0.156255 0.1875,0.35938 0.1875,0.60938 0,0.25 -0.0625,0.45312 -0.1875,0.60938 -0.125,0.15626 -0.28906,0.23438 -0.48438,0.23438 -0.10547,0 -0.20312,-0.023438 -0.29688,-0.0625 -0.085937,-0.050781 -0.16406,-0.125 -0.23438,-0.21875 V 8.5e-5 h -0.5 v -2.2188 h 0.5 z"
         id="path220" />
    </symbol>
    <symbol
       id="g"
       overflow="visible">
      <path
         d="m 0.03125,-1.5938 h 0.51562 l 0.42188,1.0781 0.375,-1.0781 h 0.51562 l -0.67188,1.75 C 1.113271,0.33198 1.03124,0.45308 0.93749,0.51558 0.851552,0.585893 0.73827,0.62496 0.59374,0.62496 H 0.29686 V 0.29684 h 0.15625 c 0.082031,0 0.14453,-0.015625 0.1875,-0.046875 C 0.679673,0.226527 0.710923,0.179653 0.73436,0.109345 L 0.749985,0.06247 Z"
         id="path223" />
    </symbol>
    <symbol
       id="k"
       overflow="visible">
      <path
         d="m 0.09375,-2.125 h 0.51562 l 0.375,1.5469 0.35938,-1.5469 H 1.875 l 0.35938,1.5469 0.375,-1.5469 H 3.125 L 2.625,0 H 2 L 1.60938,-1.625 1.23438,0 H 0.59376 Z"
         id="path226" />
    </symbol>
    <symbol
       id="f"
       overflow="visible">
      <path
         d="M 1.8594,-0.96875 V 0 H 1.34378 v -0.73438 c 0,-0.14453 -0.00781,-0.24219 -0.015625,-0.29688 C 1.316436,-1.082041 1.304718,-1.117198 1.296905,-1.14064 1.273468,-1.179703 1.25003,-1.207046 1.21878,-1.218765 c -0.03125,-0.019531 -0.074219,-0.03125 -0.125,-0.03125 -0.10547,0 -0.1875,0.042969 -0.25,0.125 -0.0625,0.085938 -0.09375,0.19922 -0.09375,0.34375 v 0.78125 h -0.5 v -2.2188 h 0.5 v 0.85938 c 0.082031,-0.09375 0.16406,-0.16016 0.25,-0.20312 0.082031,-0.050781 0.17578,-0.078125 0.28125,-0.078125 0.1875,0 0.32812,0.058594 0.42188,0.17188 0.10156,0.11719 0.15625,0.28125 0.15625,0.5 z"
         id="path229" />
    </symbol>
    <symbol
       id="j"
       overflow="visible">
      <path
         d="m 0.23438,-0.625 v -0.96875 h 0.5 v 0.15625 0.32812 0.26562 c 0,0.125 0.003906,0.21875 0.015625,0.28125 0.007812,0.054688 0.019531,0.089844 0.03125,0.10938 0.019531,0.03125 0.046875,0.058594 0.078125,0.078125 0.039063,0.023438 0.082031,0.03125 0.125,0.03125 0.10156,0 0.1875,-0.039062 0.25,-0.125 0.0625,-0.082031 0.09375,-0.19531 0.09375,-0.34375 v -0.78125 h 0.5 v 1.5938 h -0.5 v -0.23438 c -0.085937,0.09375 -0.16797,0.16797 -0.25,0.21875 -0.085937,0.039062 -0.17969,0.0625 -0.28125,0.0625 -0.1875,0 -0.32812,-0.054688 -0.42188,-0.17188 -0.09375,-0.11328 -0.14062,-0.28125 -0.14062,-0.5 z"
         id="path232" />
    </symbol>
    <symbol
       id="i"
       overflow="visible">
      <path
         d="M 0.26562,-2.125 H 1.1875 c 0.26953,0 0.47266,0.0625 0.60938,0.1875 0.14453,0.11719 0.21875,0.28125 0.21875,0.5 0,0.23047 -0.074219,0.40625 -0.21875,0.53125 -0.13672,0.11719 -0.33984,0.17188 -0.60938,0.17188 H 0.8125 V 1e-5 H 0.26562 Z m 0.54688,0.39062 v 0.59375 H 1.125 c 0.10156,0 0.17969,-0.023437 0.23438,-0.078125 0.0625,-0.050781 0.09375,-0.125 0.09375,-0.21875 0,-0.09375 -0.03125,-0.16406 -0.09375,-0.21875 C 1.304693,-1.707036 1.22657,-1.73438 1.125,-1.73438 Z"
         id="path235" />
    </symbol>
    <symbol
       id="s"
       overflow="visible">
      <path
         d="m 0.25,-1.5938 h 0.5 V 0 h -0.5 z m 0,-0.625 h 0.5 v 0.42188 h -0.5 z"
         id="path238" />
    </symbol>
    <symbol
       id="h"
       overflow="visible">
      <path
         d="M 1.8594,-0.96875 V 0 H 1.34378 v -0.75 c 0,-0.13281 -0.00781,-0.22656 -0.015625,-0.28125 C 1.316436,-1.082031 1.304718,-1.117188 1.296905,-1.14063 1.273468,-1.179693 1.25003,-1.207036 1.21878,-1.218755 c -0.03125,-0.019531 -0.074219,-0.03125 -0.125,-0.03125 -0.10547,0 -0.1875,0.042969 -0.25,0.125 -0.0625,0.085938 -0.09375,0.19922 -0.09375,0.34375 V -5e-6 h -0.5 v -1.5938 h 0.5 v 0.23438 c 0.082031,-0.09375 0.16406,-0.16016 0.25,-0.20312 0.082031,-0.050781 0.17578,-0.078125 0.28125,-0.078125 0.1875,0 0.32812,0.058594 0.42188,0.17188 0.10156,0.11719 0.15625,0.28125 0.15625,0.5 z"
         id="path241" />
    </symbol>
    <symbol
       id="b"
       overflow="visible">
      <path
         d="m 1,-1.2656 c -0.10547,0 -0.1875,0.042969 -0.25,0.125 -0.0625,0.074219 -0.09375,0.1875 -0.09375,0.34375 0,0.15625 0.03125,0.27734 0.09375,0.35938 0.0625,0.074219 0.14453,0.10938 0.25,0.10938 0.11328,0 0.19531,-0.035156 0.25,-0.10938 C 1.3125,-0.519501 1.34375,-0.64059 1.34375,-0.79685 1.34375,-0.95311 1.3125,-1.06638 1.25,-1.1406 1.195312,-1.222631 1.11328,-1.2656 1,-1.2656 Z m 0,-0.375 c 0.28125,0 0.49219,0.078125 0.64062,0.23438 0.15625,0.14844 0.23438,0.35156 0.23438,0.60938 0,0.26172 -0.078125,0.46875 -0.23438,0.625 C 1.49218,-0.0234 1.28124,0.04691 1,0.04691 0.72656,0.04691 0.51562,-0.023402 0.35938,-0.17184 0.20313,-0.32809 0.125,-0.53512 0.125,-0.79684 0.125,-1.05465 0.203125,-1.25778 0.35938,-1.40622 0.51563,-1.56247 0.72657,-1.6406 1,-1.6406 Z"
         id="path244" />
    </symbol>
    <symbol
       id="r"
       overflow="visible">
      <path
         d="m 1.2969,-2.2188 v 0.32812 H 1.01565 c -0.074219,0 -0.125,0.015625 -0.15625,0.046875 -0.023437,0.023438 -0.03125,0.070312 -0.03125,0.14062 v 0.10938 h 0.42188 v 0.35938 H 0.82815 v 1.2344 H 0.31253 v -1.2344 h -0.25 v -0.35938 h 0.25 v -0.10938 c 0,-0.17578 0.046875,-0.30469 0.14062,-0.39062 0.09375,-0.082031 0.24219,-0.125 0.45312,-0.125 z"
         id="path247" />
    </symbol>
    <symbol
       id="q"
       overflow="visible">
      <path
         d="m 1.7188,-1.3281 c 0.070312,-0.10156 0.14844,-0.17969 0.23438,-0.23438 0.09375,-0.050781 0.19141,-0.078125 0.29688,-0.078125 0.1875,0 0.32812,0.058594 0.42188,0.17188 0.09375,0.11719 0.14062,0.28125 0.14062,0.5 V 2.5e-5 H 2.29694 v -0.82812 -0.046875 -0.046875 c 0,-0.11328 -0.015625,-0.19531 -0.046875,-0.25 -0.03125,-0.050781 -0.085938,-0.078125 -0.15625,-0.078125 -0.09375,0 -0.17188,0.042969 -0.23438,0.125 -0.054687,0.074219 -0.078125,0.1875 -0.078125,0.34375 V 3e-5 H 1.26569 v -0.82812 c 0,-0.17578 -0.015625,-0.28906 -0.046875,-0.34375 -0.023438,-0.050781 -0.074219,-0.078125 -0.15625,-0.078125 -0.09375,0 -0.17188,0.042969 -0.23438,0.125 -0.054687,0.074219 -0.078125,0.1875 -0.078125,0.34375 V 3.5e-5 h -0.5 v -1.5938 h 0.5 v 0.23438 c 0.0625,-0.09375 0.13281,-0.16016 0.21875,-0.20312 0.082031,-0.050781 0.17188,-0.078125 0.26562,-0.078125 0.11328,0 0.21094,0.027344 0.29688,0.078125 0.082031,0.054688 0.14453,0.13281 0.1875,0.23438 z"
         id="path250" />
    </symbol>
    <symbol
       id="p"
       overflow="visible">
      <path
         d="M 0.26562,-2.125 H 0.875 l 0.78125,1.4531 V -2.125 H 2.17187 V 0 H 1.56249 L 0.78124,-1.4688 V 0 H 0.26562 Z"
         id="path253" />
    </symbol>
    <symbol
       id="o"
       overflow="visible">
      <path
         d="m 0.25,-1.5938 h 0.5 v 1.5625 C 0.75,0.18745 0.695312,0.34761 0.59375,0.45308 0.5,0.56636 0.35156,0.62496 0.15625,0.62496 h -0.25 V 0.29684 h 0.078125 c 0.10156,0 0.17188,-0.023437 0.20312,-0.0625 0.039062,-0.042969 0.0625,-0.13281 0.0625,-0.26562 z m 0,-0.625 h 0.5 v 0.42188 h -0.5 z"
         id="path256" />
    </symbol>
    <symbol
       id="n"
       overflow="visible">
      <path
         d="m 1.5312,-1.5469 v 0.42188 C 1.4687,-1.175801 1.39839,-1.210958 1.32808,-1.2344 1.253861,-1.253931 1.17964,-1.26565 1.10933,-1.26565 c -0.14844,0 -0.26172,0.042969 -0.34375,0.125 -0.074219,0.085937 -0.10938,0.19922 -0.10938,0.34375 0,0.14844 0.035156,0.26172 0.10938,0.34375 0.082031,0.085937 0.19531,0.125 0.34375,0.125 0.082031,0 0.15625,-0.007813 0.21875,-0.03125 0.070313,-0.019531 0.14062,-0.054687 0.20312,-0.10938 v 0.42188 c -0.074219,0.03125 -0.15234,0.050781 -0.23438,0.0625 -0.085937,0.019531 -0.16797,0.03125 -0.25,0.03125 -0.29297,0 -0.52344,-0.070312 -0.6875,-0.21875 -0.15625,-0.15625 -0.23438,-0.36328 -0.23438,-0.625 0,-0.25781 0.078125,-0.46094 0.23438,-0.60938 0.16406,-0.15625 0.39453,-0.23438 0.6875,-0.23438 0.082031,0 0.16406,0.011719 0.25,0.03125 0.082031,0.011719 0.16016,0.03125 0.23438,0.0625 z"
         id="path259" />
    </symbol>
  </defs>
  <g
     id="g350"
     transform="matrix(0.73454131,0,0,0.80410542,-123.36654,-63.990961)">
    <path
       d="m 223.05895,125.9741 c -12.40458,0 -22.45722,-8.96097 -22.45722,-20.01608 0,-4.72261 1.84547,-9.054795 4.91552,-12.47802 -12.07856,0.332157 -21.75825,9.13897 -21.75825,19.98392 0,11.05404 10.05287,20.01608 22.45722,20.01608 7.10541,0 13.42717,-2.94746 17.54278,-7.53732 -0.23497,0.007 -0.46383,0.0314 -0.69974,0.0314 z"
       id="path264"
       style="fill:#000080;stroke-width:0.113578" />
  </g>
</svg>
