<?xml version="1.0" encoding="UTF-8" standalone="no"?>
<svg
   width="50pt"
   height="50pt"
   version="1.1"
   viewBox="0 0 50 50"
   id="svg4"
   sodipodi:docname="light-theme.svg"
   inkscape:version="1.2.2 (b0a84865, 2022-12-01)"
   xmlns:inkscape="http://www.inkscape.org/namespaces/inkscape"
   xmlns:sodipodi="http://sodipodi.sourceforge.net/DTD/sodipodi-0.dtd"
   xmlns="http://www.w3.org/2000/svg"
   xmlns:svg="http://www.w3.org/2000/svg">
  <defs
     id="defs8" />
  <sodipodi:namedview
     id="namedview6"
     pagecolor="#ffffff"
     bordercolor="#000000"
     borderopacity="0.25"
     inkscape:showpageshadow="2"
     inkscape:pageopacity="0.0"
     inkscape:pagecheckerboard="0"
     inkscape:deskcolor="#d1d1d1"
     inkscape:document-units="pt"
     showgrid="false"
     inkscape:zoom="5.6515775"
     inkscape:cx="70.068932"
     inkscape:cy="13.536044"
     inkscape:window-width="1920"
     inkscape:window-height="1027"
     inkscape:window-x="1512"
     inkscape:window-y="25"
     inkscape:window-maximized="0"
     inkscape:current-layer="svg4" />
  <path
     d="m 25.464475,33.301381 c -1.856452,0 -3.637027,-0.737481 -4.949767,-2.050215 -1.312744,-1.312734 -2.05023,-3.093294 -2.05023,-4.949739 0,-1.856445 0.737486,-3.637004 2.05023,-4.949739 1.31274,-1.312734 3.093315,-2.050214 4.949767,-2.050214 1.856461,0 3.637036,0.73748 4.949776,2.050214 1.312747,1.312735 2.05023,3.093294 2.05023,4.949739 0,1.856445 -0.737483,3.637005 -2.05023,4.949739 -1.31274,1.312734 -3.093315,2.050215 -4.949776,2.050215 z m 0,-11.999921 c -1.326112,0 -2.597767,0.526785 -3.535485,1.464505 -0.937717,0.937719 -1.464518,2.209356 -1.464518,3.535462 0,1.326105 0.526793,2.597755 1.464518,3.535463 0.937725,0.937708 2.209373,1.464504 3.535485,1.464504 1.32612,0 2.597776,-0.526785 3.535493,-1.464504 0.93771,-0.937719 1.46451,-2.209358 1.46451,-3.535463 0,-1.326106 -0.526785,-2.597755 -1.46451,-3.535462 C 28.062243,21.828257 26.790595,21.30146 25.464475,21.30146 Z M 26.46448,17.301487 V 12.30152 c 0,-0.357363 -0.190627,-0.687481 -0.500002,-0.866051 -0.309375,-0.17857 -0.69063,-0.17857 -0.999998,0 -0.309375,0.17857 -0.500002,0.508699 -0.500002,0.866051 v 4.999967 c 0,0.357363 0.19062,0.687481 0.500002,0.866051 0.309375,0.17857 0.69063,0.17857 0.999998,0 0.309375,-0.17857 0.500002,-0.508699 0.500002,-0.866051 z m -6.660002,3.33992 c 0.186377,-0.187272 0.290844,-0.440842 0.290844,-0.704909 0,-0.264284 -0.104467,-0.517631 -0.290844,-0.705139 L 16.27459,15.69144 c -0.253794,-0.253569 -0.623428,-0.352677 -0.969885,-0.259821 -0.346652,0.09286 -0.617201,0.363392 -0.710058,0.710052 -0.09286,0.346427 0.0062,0.716053 0.259823,0.96988 l 3.539945,3.539919 c 0.187497,0.186159 0.440846,0.290844 0.705143,0.290844 0.264063,0 0.517635,-0.104685 0.704914,-0.290844 z m -2.339943,5.66002 c 0,-0.265176 -0.10536,-0.519643 -0.292858,-0.707138 -0.187497,-0.187496 -0.441966,-0.292856 -0.707143,-0.292856 H 11.46453 c -0.357366,0 -0.687486,0.190622 -0.866057,0.499997 -0.178572,0.309376 -0.178572,0.690624 0,0.999994 0.178571,0.309369 0.508702,0.499996 0.866057,0.499996 h 5.000004 c 0.265177,0 0.519646,-0.105359 0.707143,-0.292855 0.187498,-0.187496 0.292858,-0.441963 0.292858,-0.707138 z m -1.189945,10.610216 3.539946,-3.539919 c 0.220531,-0.257588 0.295531,-0.609139 0.199329,-0.934166 -0.09598,-0.324997 -0.350221,-0.579253 -0.675198,-0.675424 -0.325001,-0.09598 -0.676572,-0.02098 -0.934172,0.199553 l -3.550002,3.529862 c -0.211606,0.18125 -0.337949,0.442631 -0.348663,0.720967 -0.01093,0.278347 0.09509,0.548659 0.291966,0.745766 0.197097,0.196873 0.467411,0.302901 0.745772,0.292187 0.278348,-0.01093 0.539731,-0.137274 0.720972,-0.348884 z m 10.189718,3.38992 v -4.999967 c 0,-0.357363 -0.19062,-0.687481 -0.500003,-0.866051 -0.309375,-0.17857 -0.69063,-0.17857 -0.999997,0 -0.309375,0.17857 -0.500003,0.508699 -0.500003,0.866051 v 4.999967 c 0,0.357363 0.190628,0.687481 0.500003,0.866051 0.309375,0.17857 0.69063,0.17857 0.999997,0 0.309375,-0.17857 0.500003,-0.508699 0.500003,-0.866051 z m 9.610291,-3.38992 c 0.186157,-0.187497 0.290842,-0.440843 0.290842,-0.705138 0,-0.264062 -0.104685,-0.517632 -0.290842,-0.70491 l -3.539948,-3.539919 c -0.257588,-0.220536 -0.609143,-0.295536 -0.93417,-0.199554 -0.324998,0.09621 -0.579255,0.350444 -0.675428,0.675425 -0.09598,0.324997 -0.021,0.676567 0.199553,0.934165 l 3.539948,3.539919 c 0.187275,0.186159 0.440842,0.290844 0.70491,0.290844 0.264292,0 0.517635,-0.104685 0.70515,-0.290844 z m 4.389945,-10.610216 c 0,-0.265176 -0.10536,-0.519643 -0.29286,-0.707138 -0.187493,-0.187496 -0.44196,-0.292856 -0.707138,-0.292856 h -5.000002 c -0.357368,0 -0.687488,0.190622 -0.866063,0.499997 -0.178568,0.309376 -0.178568,0.690624 0,0.999994 0.178575,0.309369 0.508703,0.499996 0.866063,0.499996 h 5.000002 c 0.265178,0 0.519645,-0.105359 0.707138,-0.292855 0.1875,-0.187496 0.29286,-0.441963 0.29286,-0.707138 z m -7.929721,-5.66002 3.539948,-3.539919 c 0.220313,-0.257364 0.295538,-0.60891 0.199328,-0.934165 -0.09598,-0.324998 -0.35022,-0.579254 -0.675195,-0.675196 -0.325223,-0.09621 -0.6768,-0.02099 -0.934178,0.199331 l -3.53994,3.539919 c -0.211605,0.18125 -0.338175,0.442631 -0.348885,0.720966 -0.01073,0.27857 0.09509,0.54866 0.292185,0.745767 0.1971,0.197096 0.46719,0.302901 0.74577,0.292187 0.278355,-0.01072 0.539737,-0.137274 0.720975,-0.348884 z"
     style="fill:#ffff00;stroke-width:0.0571427"
     id="path837" />
</svg>
